<?xml version="1.0" standalone="no"?>
<!DOCTYPE svg PUBLIC "-//W3C//DTD SVG 20010904//EN"
 "http://www.w3.org/TR/2001/REC-SVG-20010904/DTD/svg10.dtd">
<svg version="1.0" xmlns="http://www.w3.org/2000/svg"
 width="500.000000pt" height="500.000000pt" viewBox="0 0 500.000000 500.000000"
 preserveAspectRatio="xMidYMid meet">

<g transform="translate(0.000000,500.000000) scale(0.100000,-0.100000)"
fill="#000000" stroke="none">
<path d="M2470 4143 c-8 -4 -361 -106 -785 -228 l-770 -221 0 -729 c0 -813 -2
-785 71 -981 71 -192 164 -327 354 -514 174 -173 338 -300 587 -455 211 -132
545 -295 604 -295 52 0 447 201 628 320 124 81 308 218 361 269 24 23 68 60
98 83 85 66 238 234 309 340 77 116 134 241 171 375 l27 98 3 742 3 742 -68
20 c-37 11 -250 72 -473 136 -400 115 -466 134 -835 243 -187 55 -255 68 -285
55z m288 -229 c125 -36 252 -72 282 -80 30 -8 84 -24 120 -34 36 -11 137 -40
225 -66 192 -54 369 -106 488 -141 l87 -26 0 -300 0 -299 -67 67 c-91 91 -193
157 -302 193 -70 23 -104 42 -156 85 -137 113 -272 117 -371 12 -18 -18 -60
-48 -95 -66 -35 -17 -75 -40 -89 -49 -16 -12 -36 -16 -53 -13 -37 7 -87 -15
-98 -44 -12 -33 -11 -77 3 -91 8 -8 2 -26 -28 -74 -32 -52 -39 -72 -39 -114 1
-28 9 -71 19 -97 l17 -46 -41 -52 c-24 -31 -39 -58 -35 -67 3 -9 0 -19 -6 -23
-9 -5 -7 -16 7 -39 28 -48 67 -74 106 -71 51 4 71 3 101 -4 23 -6 34 -1 76 38
58 55 87 64 146 47 43 -12 66 -11 110 5 l20 7 -20 -17 c-17 -14 -34 -16 -106
-11 l-87 7 -33 -40 c-23 -26 -45 -72 -67 -137 -33 -100 -45 -119 -155 -253
-53 -63 -106 -166 -93 -178 12 -13 100 -10 133 3 19 9 68 19 107 23 61 7 82
15 141 54 93 60 116 82 159 147 23 35 36 67 36 88 l0 34 48 -39 c68 -57 82
-60 82 -19 0 18 -7 53 -15 76 -20 58 -18 72 5 30 34 -63 35 -115 5 -275 -3
-12 -22 -31 -45 -44 -22 -12 -51 -37 -65 -56 -14 -18 -36 -35 -48 -38 -12 -2
-123 -33 -247 -69 -124 -36 -265 -76 -314 -90 l-90 -25 -145 44 c-81 24 -198
59 -261 78 -365 111 -451 137 -503 152 l-58 17 42 15 c23 9 44 21 46 27 2 6
-8 25 -22 42 -32 39 -33 103 -3 228 l21 92 -31 49 c-31 47 -42 93 -23 93 12 0
40 78 53 151 7 43 13 58 18 45 6 -18 8 -18 29 5 37 40 54 119 49 233 -4 99 -4
100 10 56 8 -25 15 -81 15 -125 2 -95 -24 -159 -79 -201 -22 -17 -34 -35 -34
-50 0 -13 -9 -48 -20 -78 l-21 -55 25 -49 c47 -93 66 -92 159 9 l65 69 56 0
c31 0 56 -2 56 -4 0 -21 -30 -80 -59 -116 -20 -24 -36 -49 -37 -55 0 -5 -2
-15 -2 -22 -1 -7 -8 -10 -15 -7 -21 8 -46 -29 -56 -82 -11 -56 -9 -89 5 -89
19 0 124 61 124 72 0 6 7 19 16 27 8 9 24 48 35 87 25 92 43 127 85 166 24 23
34 41 34 62 0 32 -8 42 -56 70 -17 10 -44 40 -61 65 l-31 47 -42 -80 c-46 -88
-96 -137 -170 -164 -43 -16 -44 -16 -20 0 47 32 100 96 145 175 53 92 116 161
141 156 13 -2 21 -19 28 -58 12 -59 26 -72 97 -85 30 -5 41 -2 67 20 18 15 32
33 32 41 0 9 24 75 54 147 30 73 59 151 66 174 12 38 15 41 37 32 137 -52 316
105 328 289 3 46 2 58 -4 37 -31 -111 -106 -189 -194 -201 -40 -6 -53 -3 -87
20 -22 14 -40 30 -40 34 0 4 23 30 51 57 86 85 144 200 121 241 -7 13 -10 11
-15 -15 -11 -52 -89 -119 -217 -186 -77 -41 -120 -69 -130 -88 -30 -53 14 -75
106 -52 27 6 33 4 39 -15 4 -11 3 -45 -1 -73 -6 -44 -8 -48 -15 -27 -4 14 -7
42 -8 63 -1 42 -10 45 -67 21 -70 -29 -144 0 -144 58 0 43 15 64 66 94 l45 27
-68 45 c-194 130 -452 193 -667 163 -154 -22 -245 -86 -337 -238 -28 -46 -52
-83 -55 -83 -2 0 -4 51 -4 114 l0 114 68 20 c37 11 195 57 352 102 157 45 330
95 385 111 276 82 612 177 628 178 10 0 120 -29 245 -65z m-888 -319 c36 -9
90 -25 120 -37 54 -20 160 -76 160 -83 0 -2 -29 5 -64 15 -258 74 -546 33
-714 -100 -59 -47 -75 -75 -36 -60 71 27 145 -8 185 -87 55 -111 -56 -149
-173 -60 -91 70 -110 139 -62 227 15 27 43 62 63 78 51 41 146 89 211 106 72
19 228 20 310 1z m160 -190 c14 -15 12 -15 -12 -6 -19 7 -28 7 -28 0 0 -5 7
-12 15 -15 16 -6 60 -92 52 -100 -7 -7 -49 15 -59 30 -4 6 -8 23 -8 37 0 14
-11 36 -25 49 -13 12 -22 26 -20 31 7 11 66 -8 85 -26z m-874 -123 c0 -33 7
-59 22 -79 12 -17 22 -34 22 -37 0 -3 -27 -19 -60 -36 l-60 -30 0 87 c0 87 0
88 32 115 18 15 35 28 38 28 3 0 5 -22 6 -48z m1100 -168 c3 -18 1 -46 -4 -61
-10 -28 -10 -28 -11 10 -1 30 -5 37 -20 37 -26 0 -37 18 -17 26 9 3 16 18 16
33 1 25 1 25 15 7 8 -11 18 -34 21 -52z m-279 -161 c40 -37 31 -45 -12 -11
-29 22 -56 74 -54 105 0 10 7 0 15 -22 7 -22 30 -55 51 -72z m217 -130 l19
-23 -31 0 c-28 0 -29 1 -19 24 7 14 12 24 12 23 0 -1 9 -12 19 -24z m656 -7
c0 -14 -35 -36 -56 -36 -32 0 -31 16 4 28 29 11 52 14 52 8z m-1430 -243 c13
-21 41 -60 63 -87 38 -46 40 -51 30 -86 -6 -24 -6 -44 0 -55 17 -30 9 -79 -22
-145 -32 -68 -37 -86 -22 -92 5 -1 5 -13 0 -25 l-8 -21 -73 22 c-40 13 -110
34 -155 47 -46 13 -83 27 -83 30 0 4 12 14 26 24 38 25 64 89 64 163 l0 63 52
24 c29 13 76 27 105 31 29 3 53 10 53 15 0 5 -11 26 -25 47 -28 42 -65 144
-64 176 0 12 8 -4 18 -36 10 -31 29 -74 41 -95z m2307 -105 c-3 -8 -6 -5 -6 6
-1 11 2 17 5 13 3 -3 4 -12 1 -19z m10 -125 c-3 -72 -12 -128 -26 -167 -12
-33 -21 -60 -21 -62 0 -2 21 -4 48 -6 l47 -3 -70 -21 -71 -20 33 81 c32 80 52
181 53 263 0 23 3 42 6 42 4 0 4 -48 1 -107z m-2314 -399 c34 -9 77 -22 95
-29 29 -13 32 -18 32 -58 0 -44 -26 -137 -38 -137 -4 0 -7 -22 -8 -49 0 -26
-9 -65 -20 -87 -30 -61 -56 -58 -148 16 -85 69 -94 79 -77 90 7 4 21 40 32 81
10 41 25 90 33 109 8 20 12 49 9 64 -5 24 -3 28 11 23 9 -4 45 -14 79 -23z
m2200 -42 c27 -24 42 -84 28 -122 -6 -18 -9 -36 -6 -40 3 -5 28 -16 55 -25 28
-9 50 -20 50 -23 -1 -8 -38 -50 -68 -76 l-23 -20 -43 43 c-29 28 -48 40 -59
35 -23 -9 -21 -32 8 -90 l26 -49 -38 -34 c-21 -18 -52 -39 -69 -47 -17 -7 -37
-20 -44 -29 -7 -9 -26 -23 -41 -31 -27 -14 -29 -13 -44 15 -21 42 -29 44 -75
21 -33 -17 -40 -26 -40 -49 0 -16 7 -34 15 -41 8 -7 15 -16 15 -21 0 -10 -108
-84 -114 -78 -1 2 -8 116 -15 253 -6 143 -16 255 -22 262 -6 7 -20 14 -32 16
-14 2 5 12 52 27 53 17 79 21 90 14 16 -10 99 -138 145 -223 33 -61 84 -130
96 -130 23 0 7 63 -52 208 -48 119 -67 156 -87 166 -24 13 -19 16 100 54 127
42 157 44 192 14z m-1949 -28 c39 -14 44 -18 31 -28 -14 -10 -46 -125 -75
-270 -11 -55 0 -79 34 -74 23 3 19 -7 71 221 20 85 31 117 42 117 28 0 123
-31 123 -41 0 -5 -7 -9 -16 -9 -21 0 -37 -45 -69 -200 -41 -203 -41 -203 -74
-223 -43 -25 -70 -21 -130 19 -56 38 -90 93 -91 147 0 15 16 87 35 161 19 74
35 148 35 165 0 37 13 39 84 15z m377 -108 l34 -14 -27 -12 c-35 -17 -43 -39
-73 -210 -14 -80 -27 -157 -30 -171 -5 -20 -1 -28 20 -37 14 -7 35 -12 46 -12
11 0 29 -4 39 -10 17 -9 17 -12 -1 -72 -11 -34 -21 -64 -23 -65 -4 -4 -214
104 -233 119 -10 8 -10 13 0 23 8 7 28 89 46 181 18 93 39 200 48 238 l15 68
53 -6 c29 -3 68 -12 86 -20z m984 -56 c17 -53 14 -70 -13 -70 -9 0 -34 -5 -56
-11 l-38 -11 4 -49 c3 -27 8 -52 11 -55 3 -3 26 6 51 21 42 25 45 25 54 8 6
-10 11 -38 13 -62 4 -49 -3 -56 -65 -66 l-39 -6 6 -60 c3 -34 7 -63 10 -66 6
-6 63 23 96 49 31 24 41 11 41 -59 0 -45 -3 -54 -27 -71 -22 -15 -161 -90
-205 -110 -5 -2 -8 26 -8 63 0 68 -43 401 -61 467 -5 20 -16 44 -25 53 -12 12
-13 16 -2 20 41 15 206 63 220 64 11 1 22 -15 33 -49z m-730 -19 c48 -17 49
-18 27 -30 -32 -17 -38 -38 -61 -227 -12 -93 -24 -181 -27 -196 -4 -23 0 -29
27 -44 18 -9 55 -18 82 -19 64 -3 70 -11 53 -66 -8 -24 -17 -56 -20 -71 -4
-16 -13 -28 -21 -28 -21 0 -237 98 -254 115 -15 15 -15 14 56 483 l16 102 36
-1 c20 0 58 -8 86 -18z m447 -51 c24 -33 39 -232 18 -245 -10 -6 -7 -12 9 -24
28 -21 40 -75 41 -173 0 -128 -3 -132 -179 -204 l-112 -46 -42 16 c-70 27 -71
28 -48 67 19 31 21 59 27 285 6 222 5 255 -9 284 -10 18 -17 35 -17 38 0 2 21
2 48 -1 32 -4 67 0 112 13 86 25 128 22 152 -10z m52 -666 c-18 -15 -18 -15 7
-10 34 7 58 -16 39 -39 -7 -8 -20 -15 -29 -15 -14 1 -14 2 2 11 26 15 21 30
-8 23 -33 -8 -47 22 -20 42 25 19 33 8 9 -12z m-530 1 c7 -18 -5 -20 -23 -2
-12 10 -13 8 -6 -8 13 -36 10 -50 -11 -53 -21 -3 -52 23 -40 35 3 4 13 -2 20
-13 8 -10 18 -16 22 -11 4 4 2 13 -4 19 -7 7 -12 20 -12 30 0 23 45 25 54 3z
m71 -46 c10 -31 -13 -61 -43 -57 -21 2 -28 9 -30 29 -6 50 58 75 73 28z m435
-9 c16 -39 9 -46 -25 -24 l-26 17 7 -28 c9 -37 -9 -26 -26 15 -16 39 -8 47 25
26 26 -17 26 -17 19 10 -9 36 9 24 26 -16z m-400 -26 c-14 -35 -12 -44 5 -44
8 0 15 -4 15 -9 0 -4 -11 -6 -25 -3 -14 2 -25 10 -25 17 0 24 22 75 31 70 4
-3 4 -17 -1 -31z m308 14 c31 -31 -3 -87 -42 -72 -18 7 -31 47 -22 69 7 18 47
20 64 3z m-246 -33 c-4 -30 -1 -35 16 -35 16 0 21 7 24 32 3 30 6 33 46 36 25
2 42 -1 42 -7 0 -6 -4 -11 -10 -11 -5 0 -10 -16 -10 -35 0 -19 -4 -35 -10 -35
-5 0 -10 16 -10 35 0 45 -24 47 -36 3 -17 -59 -77 -41 -67 20 7 43 20 41 15
-3z m160 -2 c8 -62 -9 -61 -19 1 -3 22 -2 36 5 36 5 0 12 -17 14 -37z"/>
<path d="M2264 2751 c3 -18 6 -46 6 -61 0 -41 45 -90 81 -90 37 0 79 39 79 73
0 14 7 27 15 31 22 8 18 43 -6 60 -18 12 -26 12 -60 1 -22 -8 -46 -12 -54 -9
-8 4 -15 1 -15 -5 0 -6 15 -14 32 -19 38 -10 49 -37 19 -47 -28 -8 -37 -1 -73
54 l-30 46 6 -34z"/>
<path d="M1402 1830 c-10 -28 -9 -32 14 -42 30 -14 41 -4 46 37 3 26 -1 30
-23 33 -22 3 -29 -2 -37 -28z"/>
<path d="M1365 1699 c-5 -23 -3 -34 12 -44 24 -19 36 -14 48 19 8 23 6 30 -10
42 -29 21 -43 17 -50 -17z"/>
<path d="M3498 1828 c-33 -11 -36 -36 -9 -69 16 -21 22 -22 45 -11 30 13 35
51 10 76 -8 9 -16 16 -17 15 -1 0 -14 -5 -29 -11z"/>
<path d="M3220 1594 c0 -44 3 -83 6 -87 5 -5 57 16 72 28 4 4 -31 71 -57 110
l-21 30 0 -81z"/>
<path d="M2597 1544 c-4 -4 -7 -38 -7 -76 0 -65 1 -68 23 -68 42 0 58 30 50
91 -7 48 -11 54 -33 57 -14 2 -29 0 -33 -4z"/>
<path d="M2635 1303 c-39 -10 -45 -23 -45 -100 0 -52 4 -75 13 -79 17 -6 69
13 79 29 15 23 9 125 -8 141 -8 9 -16 15 -17 15 -1 -1 -11 -4 -22 -6z"/>
<path d="M2290 925 c-13 -15 -7 -45 8 -45 16 0 34 29 28 45 -7 19 -20 19 -36
0z"/>
<path d="M2644 896 c-8 -22 3 -49 19 -43 6 2 12 14 12 27 0 27 -22 39 -31 16z"/>
</g>
</svg>
